<svg width="28" height="28" viewBox="0 0 28 28" fill="none" xmlns="http://www.w3.org/2000/svg">
<g filter="url(#filter0_d)">
<g clip-path="url(#clip0)">
<mask id="mask0" style="mask-type:alpha" maskUnits="userSpaceOnUse" x="4" y="-1" width="20" height="20">
<rect x="4" y="-1" width="20" height="20" fill="black"/>
</mask>
<g mask="url(#mask0)">
<path d="M6.28494 8.69997C8.34054 11.9817 10.9909 14.36 14.4676 16.1178C14.4426 15.9069 14.4019 15.6982 14.3456 15.4933C13.6371 13.7545 14.5676 12.53 15.716 11.4524C16.3622 10.8376 17.1075 10.3345 17.921 9.96394C18.7624 9.59386 19.5874 9.94081 20.2712 10.5599C21.2922 11.4864 22.3159 12.4103 23.3574 13.315C24.3468 14.1749 24.1577 15.7858 23.049 16.5151C20.8893 17.9383 18.55 18.556 16.0271 17.9519C14.6247 17.6303 13.2768 17.1083 12.0255 16.4022C9.67489 15.0238 7.63203 13.184 6.02182 10.9953C4.54179 8.99249 3.65104 6.80741 4.13205 4.22777C4.40612 2.7774 5.18588 1.62771 6.11912 0.574628C6.82762 -0.224028 8.4488 -0.158721 9.27789 0.584152L12.4737 3.45088C13.2767 4.16654 13.4782 5.40738 12.7614 6.18699C12.0165 6.97434 11.1979 7.68959 10.3167 8.32309C9.28063 9.09317 8.08839 9.15848 6.86873 8.7816C6.67591 8.7431 6.48098 8.71584 6.28494 8.69997ZM18.3664 16.7491C19.512 16.7369 20.7426 16.243 21.902 15.5641C22.6009 15.1559 22.6585 14.7137 22.0706 14.1627C21.0894 13.2402 20.0835 12.3409 19.0338 11.4973C18.8255 11.33 18.2636 11.3218 18.0553 11.4823C17.3347 12.0213 16.6794 12.6414 16.1025 13.33C15.7889 13.7589 15.6354 14.2827 15.6681 14.8117C15.7434 15.7246 17.2029 16.7859 18.3664 16.7491ZM8.1199 7.5979C8.28075 7.60466 8.44183 7.59187 8.59954 7.55981C9.84112 7.15164 10.7072 6.24822 11.4979 5.28357C11.6172 5.13799 11.4979 4.61145 11.3129 4.43865C10.2975 3.46993 9.23404 2.55018 8.17472 1.62635C7.77319 1.27668 7.421 1.39914 7.05785 1.76241C6.26987 2.54474 5.87519 3.51347 5.65319 4.56383C5.57254 4.92942 5.57562 5.30834 5.6622 5.67259C5.74878 6.03685 5.91665 6.37715 6.15342 6.66838C6.39019 6.95961 6.68981 7.19433 7.03017 7.35521C7.37053 7.51609 7.74294 7.59903 8.1199 7.5979Z" fill="black"/>
</g>
</g>
<rect x="4.5" y="0.5" width="19" height="19" stroke="black" shape-rendering="crispEdges"/>
</g>
<defs>
<filter id="filter0_d" x="0" y="0" width="28" height="28" filterUnits="userSpaceOnUse" color-interpolation-filters="sRGB">
<feFlood flood-opacity="0" result="BackgroundImageFix"/>
<feColorMatrix in="SourceAlpha" type="matrix" values="0 0 0 0 0 0 0 0 0 0 0 0 0 0 0 0 0 0 127 0" result="hardAlpha"/>
<feOffset dy="4"/>
<feGaussianBlur stdDeviation="2"/>
<feComposite in2="hardAlpha" operator="out"/>
<feColorMatrix type="matrix" values="0 0 0 0 0 0 0 0 0 0 0 0 0 0 0 0 0 0 0.25 0"/>
<feBlend mode="normal" in2="BackgroundImageFix" result="effect1_dropShadow"/>
<feBlend mode="normal" in="SourceGraphic" in2="effect1_dropShadow" result="shape"/>
</filter>
<clipPath id="clip0">
<rect x="4" width="20" height="20" fill="white"/>
</clipPath>
</defs>
</svg>
