<svg width="292" height="32" viewBox="0 0 292 32" fill="none" xmlns="http://www.w3.org/2000/svg">
<path d="M1.782 21V8.4H11.718V21H10.296V9.696H3.204V21H1.782ZM19.116 21.216C17.808 21.216 16.704 20.766 15.804 19.866C14.916 18.954 14.472 17.784 14.472 16.356C14.472 15 14.898 13.854 15.75 12.918C16.602 11.97 17.664 11.496 18.936 11.496C20.268 11.496 21.324 11.964 22.104 12.9C22.884 13.836 23.274 15.012 23.274 16.428C23.274 16.608 23.268 16.77 23.256 16.914H15.876C15.972 17.862 16.326 18.618 16.938 19.182C17.562 19.734 18.3 20.01 19.152 20.01C20.268 20.01 21.246 19.572 22.086 18.696L22.95 19.47C21.906 20.634 20.628 21.216 19.116 21.216ZM15.876 15.798H21.87C21.786 14.898 21.486 14.154 20.97 13.566C20.466 12.966 19.776 12.666 18.9 12.666C18.108 12.666 17.43 12.96 16.866 13.548C16.302 14.136 15.972 14.886 15.876 15.798ZM25.7003 23.88V11.694H27.0863V13.566C28.0223 12.186 29.2103 11.496 30.6503 11.496C31.8383 11.496 32.8763 11.94 33.7643 12.828C34.6523 13.704 35.0963 14.88 35.0963 16.356C35.0963 17.808 34.6523 18.978 33.7643 19.866C32.8763 20.754 31.8383 21.198 30.6503 21.198C29.1863 21.198 27.9983 20.538 27.0863 19.218V23.88H25.7003ZM30.3983 19.956C31.3343 19.956 32.1143 19.632 32.7383 18.984C33.3623 18.324 33.6743 17.442 33.6743 16.338C33.6743 15.27 33.3563 14.406 32.7203 13.746C32.0843 13.074 31.3103 12.738 30.3983 12.738C29.4983 12.738 28.7123 13.08 28.0403 13.764C27.3683 14.448 27.0323 15.312 27.0323 16.356C27.0323 17.4 27.3683 18.264 28.0403 18.948C28.7123 19.62 29.4983 19.956 30.3983 19.956ZM41.7215 21.216C40.4135 21.216 39.3095 20.766 38.4095 19.866C37.5215 18.954 37.0775 17.784 37.0775 16.356C37.0775 15 37.5035 13.854 38.3555 12.918C39.2075 11.97 40.2695 11.496 41.5415 11.496C42.8735 11.496 43.9295 11.964 44.7095 12.9C45.4895 13.836 45.8795 15.012 45.8795 16.428C45.8795 16.608 45.8735 16.77 45.8615 16.914H38.4815C38.5775 17.862 38.9315 18.618 39.5435 19.182C40.1675 19.734 40.9055 20.01 41.7575 20.01C42.8735 20.01 43.8515 19.572 44.6915 18.696L45.5555 19.47C44.5115 20.634 43.2335 21.216 41.7215 21.216ZM38.4815 15.798H44.4755C44.3915 14.898 44.0915 14.154 43.5755 13.566C43.0715 12.966 42.3815 12.666 41.5055 12.666C40.7135 12.666 40.0355 12.96 39.4715 13.548C38.9075 14.136 38.5775 14.886 38.4815 15.798ZM48.3058 21V11.694H49.6918V19.056L55.2178 11.694H56.5678V21H55.1818V13.638L49.6378 21H48.3058ZM54.0658 9.75C53.6098 10.158 53.0518 10.362 52.3918 10.362C51.7318 10.362 51.1678 10.158 50.6998 9.75C50.2438 9.342 49.9618 8.814 49.8538 8.166L50.8078 7.968C51.0478 8.808 51.5758 9.228 52.3918 9.228C53.2078 9.228 53.7358 8.808 53.9758 7.968L54.9298 8.166C54.8218 8.814 54.5338 9.342 54.0658 9.75ZM61.9113 21V12.918H58.5813V11.694H66.6453V12.918H63.3153V21H61.9113ZM68.6613 21V11.694H70.0473V19.056L75.5733 11.694H76.9233V21H75.5373V13.638L69.9933 21H68.6613ZM85.4132 21V11.694H89.9132C90.8372 11.694 91.5752 11.904 92.1272 12.324C92.6792 12.744 92.9552 13.308 92.9552 14.016C92.9552 15.012 92.4392 15.726 91.4072 16.158C92.7752 16.53 93.4592 17.298 93.4592 18.462C93.4592 19.242 93.1532 19.86 92.5412 20.316C91.9292 20.772 91.1072 21 90.0752 21H85.4132ZM86.7992 19.812H89.8952C90.5552 19.812 91.0772 19.674 91.4612 19.398C91.8452 19.122 92.0372 18.738 92.0372 18.246C92.0372 17.79 91.8332 17.436 91.4252 17.184C91.0292 16.932 90.4592 16.806 89.7152 16.806H86.7992V19.812ZM86.7992 15.69H89.6612C90.2372 15.69 90.6932 15.564 91.0292 15.312C91.3772 15.048 91.5512 14.676 91.5512 14.196C91.5512 13.8 91.3892 13.482 91.0652 13.242C90.7412 13.002 90.2852 12.882 89.6972 12.882H86.7992V15.69ZM101.357 21V11.694H102.743V17.058L107.837 11.694H109.547L105.659 15.726L109.655 21H108.017L104.705 16.734L102.743 18.75V21H101.357ZM119.291 19.794C118.355 20.742 117.197 21.216 115.817 21.216C114.437 21.216 113.285 20.742 112.361 19.794C111.449 18.846 110.993 17.7 110.993 16.356C110.993 15.024 111.455 13.884 112.379 12.936C113.315 11.976 114.473 11.496 115.853 11.496C117.233 11.496 118.385 11.97 119.309 12.918C120.233 13.866 120.695 15.012 120.695 16.356C120.695 17.688 120.227 18.834 119.291 19.794ZM115.853 19.974C116.849 19.974 117.665 19.626 118.301 18.93C118.949 18.234 119.273 17.376 119.273 16.356C119.273 15.348 118.937 14.49 118.265 13.782C117.605 13.074 116.789 12.72 115.817 12.72C114.821 12.72 114.005 13.074 113.369 13.782C112.733 14.478 112.415 15.336 112.415 16.356C112.415 17.364 112.745 18.222 113.405 18.93C114.065 19.626 114.881 19.974 115.853 19.974ZM123.206 21V11.694H124.592V15.708H129.956V11.694H131.342V21H129.956V16.932H124.592V21H123.206ZM140.037 23.88V20.244C139.293 20.88 138.519 21.198 137.715 21.198C136.587 21.198 135.675 20.766 134.979 19.902C134.283 19.026 133.935 17.832 133.935 16.32C133.935 14.832 134.283 13.656 134.979 12.792C135.675 11.928 136.587 11.496 137.715 11.496C138.519 11.496 139.293 11.832 140.037 12.504V8.4H141.441V12.504C142.185 11.832 142.959 11.496 143.763 11.496C144.903 11.496 145.821 11.934 146.517 12.81C147.213 13.674 147.561 14.856 147.561 16.356C147.561 17.844 147.207 19.026 146.499 19.902C145.803 20.766 144.891 21.198 143.763 21.198C143.247 21.198 142.821 21.12 142.485 20.964C142.161 20.796 141.813 20.556 141.441 20.244V23.88H140.037ZM138.003 19.974C138.783 19.974 139.461 19.668 140.037 19.056V13.656C139.461 13.044 138.783 12.738 138.003 12.738C137.139 12.738 136.485 13.062 136.041 13.71C135.597 14.358 135.375 15.252 135.375 16.392C135.375 18.78 136.251 19.974 138.003 19.974ZM143.493 19.974C145.245 19.974 146.121 18.768 146.121 16.356C146.121 15.228 145.899 14.346 145.455 13.71C145.011 13.062 144.357 12.738 143.493 12.738C142.713 12.738 142.029 13.044 141.441 13.656V19.056C142.029 19.668 142.713 19.974 143.493 19.974ZM150.153 21V11.694H151.539V19.056L157.065 11.694H158.415V21H157.029V13.638L151.485 21H150.153ZM161.509 21V11.694H167.827V12.918H162.895V21H161.509ZM171.281 23.934C170.609 23.934 169.949 23.778 169.301 23.466L169.769 22.368C170.213 22.596 170.699 22.71 171.227 22.71C171.647 22.71 172.001 22.578 172.289 22.314C172.577 22.062 172.859 21.612 173.135 20.964L168.905 11.694H170.435L173.819 19.452L176.807 11.694H178.283L174.377 21.306C173.981 22.254 173.543 22.926 173.063 23.322C172.583 23.73 171.989 23.934 171.281 23.934ZM180.476 23.88V11.694H181.862V13.566C182.798 12.186 183.986 11.496 185.426 11.496C186.614 11.496 187.652 11.94 188.54 12.828C189.428 13.704 189.872 14.88 189.872 16.356C189.872 17.808 189.428 18.978 188.54 19.866C187.652 20.754 186.614 21.198 185.426 21.198C183.962 21.198 182.774 20.538 181.862 19.218V23.88H180.476ZM185.174 19.956C186.11 19.956 186.89 19.632 187.514 18.984C188.138 18.324 188.45 17.442 188.45 16.338C188.45 15.27 188.132 14.406 187.496 13.746C186.86 13.074 186.086 12.738 185.174 12.738C184.274 12.738 183.488 13.08 182.816 13.764C182.144 14.448 181.808 15.312 181.808 16.356C181.808 17.4 182.144 18.264 182.816 18.948C183.488 19.62 184.274 19.956 185.174 19.956ZM195.201 21.198C194.253 21.198 193.437 20.94 192.753 20.424C192.069 19.908 191.727 19.188 191.727 18.264C191.727 17.292 192.087 16.542 192.807 16.014C193.527 15.486 194.493 15.222 195.705 15.222C196.665 15.222 197.613 15.354 198.549 15.618V15.33C198.549 14.514 198.309 13.89 197.829 13.458C197.349 13.026 196.671 12.81 195.795 12.81C194.883 12.81 193.941 13.032 192.969 13.476L192.555 12.342C193.707 11.814 194.835 11.55 195.939 11.55C197.259 11.55 198.261 11.892 198.945 12.576C199.593 13.224 199.917 14.136 199.917 15.312V21H198.549V19.614C197.721 20.67 196.605 21.198 195.201 21.198ZM195.471 20.082C196.335 20.082 197.067 19.848 197.667 19.38C198.267 18.912 198.567 18.312 198.567 17.58V16.716C197.655 16.452 196.749 16.32 195.849 16.32C194.997 16.32 194.331 16.494 193.851 16.842C193.371 17.178 193.131 17.64 193.131 18.228C193.131 18.792 193.353 19.242 193.797 19.578C194.253 19.914 194.811 20.082 195.471 20.082ZM205.103 21V12.918H201.773V11.694H209.837V12.918H206.507V21H205.103ZM219.575 19.794C218.639 20.742 217.481 21.216 216.101 21.216C214.721 21.216 213.569 20.742 212.645 19.794C211.733 18.846 211.277 17.7 211.277 16.356C211.277 15.024 211.739 13.884 212.663 12.936C213.599 11.976 214.757 11.496 216.137 11.496C217.517 11.496 218.669 11.97 219.593 12.918C220.517 13.866 220.979 15.012 220.979 16.356C220.979 17.688 220.511 18.834 219.575 19.794ZM216.137 19.974C217.133 19.974 217.949 19.626 218.585 18.93C219.233 18.234 219.557 17.376 219.557 16.356C219.557 15.348 219.221 14.49 218.549 13.782C217.889 13.074 217.073 12.72 216.101 12.72C215.105 12.72 214.289 13.074 213.653 13.782C213.017 14.478 212.699 15.336 212.699 16.356C212.699 17.364 213.029 18.222 213.689 18.93C214.349 19.626 215.165 19.974 216.137 19.974ZM223.489 23.88V11.694H224.875V13.566C225.811 12.186 226.999 11.496 228.439 11.496C229.627 11.496 230.665 11.94 231.553 12.828C232.441 13.704 232.885 14.88 232.885 16.356C232.885 17.808 232.441 18.978 231.553 19.866C230.665 20.754 229.627 21.198 228.439 21.198C226.975 21.198 225.787 20.538 224.875 19.218V23.88H223.489ZM228.187 19.956C229.123 19.956 229.903 19.632 230.527 18.984C231.151 18.324 231.463 17.442 231.463 16.338C231.463 15.27 231.145 14.406 230.509 13.746C229.873 13.074 229.099 12.738 228.187 12.738C227.287 12.738 226.501 13.08 225.829 13.764C225.157 14.448 224.821 15.312 224.821 16.356C224.821 17.4 225.157 18.264 225.829 18.948C226.501 19.62 227.287 19.956 228.187 19.956Z" fill="black"/>
<g clip-path="url(#clip0)">
<path fill-rule="evenodd" clip-rule="evenodd" d="M282.9 7L281.7 8.2L289.1 16L288.3 16.8L281.7 23.6L282.9 24.9C284.7 23 289.9 17.7 291.5 16C290.3 14.8 291.5 16 282.9 7Z" fill="black"/>
<path fill-rule="evenodd" clip-rule="evenodd" d="M258 15L290 15.1V17L258 16.8V15Z" fill="black"/>
</g>
<defs>
<clipPath id="clip0">
<rect width="33.5" height="18" fill="white" transform="translate(258 7)"/>
</clipPath>
</defs>
</svg>
